<svg xmlns="http://www.w3.org/2000/svg" viewBox="0 0 100 150" width="100" height="150"
     data-design-id="07b" data-shape-id="square" data-source="Imagen 7">
  <defs>
    <clipPath id="clip07b"><path d="M18,140 L18,30 Q18,15 33,15 L67,15 Q82,15 82,30 L82,140 Q50,148 18,140 Z"/></clipPath>
  </defs>
  <g clip-path="url(#clip07b)">
    <rect id="baseColor" x="0" y="0" width="100" height="150" fill="#FCE8F2"/>
    <g id="decoration">
      <rect x="10" y="10" width="80" height="33" fill="#FF1493"/>
      <path d="M34,85 Q22,73 27,60 Q40,65 45,78Z" fill="#FF1493" stroke="#CC0070" stroke-width="0.8"/>
      <path d="M64,85 Q76,73 71,60 Q58,65 53,78Z" fill="#FF1493" stroke="#CC0070" stroke-width="0.8"/>
      <circle cx="49" cy="78" r="8.5" fill="#FF1493" stroke="#CC0070" stroke-width="1"/>
      <circle cx="49" cy="78" r="4.8" fill="#FF60B0"/>
      <circle cx="32" cy="69" r="2.2" fill="#FF80C8" stroke="#CC0080" stroke-width="0.5"/>
      <circle cx="66" cy="69" r="2.2" fill="#FF80C8" stroke="#CC0080" stroke-width="0.5"/>
      <circle cx="49" cy="73" r="1.8" fill="#FFB0D8"/>
    </g>
  </g>
</svg>
